<?xml version="1.0" encoding="UTF-8"?>
<svg width="25px" height="31px" viewBox="0 0 25 31" version="1.1" xmlns="http://www.w3.org/2000/svg" xmlns:xlink="http://www.w3.org/1999/xlink">
    <!-- Generator: Sketch 52.6 (67491) - http://www.bohemiancoding.com/sketch -->
    <title>access</title>
    <desc>Created with Sketch.</desc>
    <defs>
        <polygon id="path-1" points="0.0006 0.943564491 24.2 0.943564491 24.2 31.9995 0.0006 31.9995"></polygon>
    </defs>
    <g id="Welcome" stroke="none" stroke-width="1" fill="none" fill-rule="evenodd">
        <g id="5-Edit-user" transform="translate(-47.000000, -316.000000)">
            <g id="access" transform="translate(47.000000, 315.000000)">
                <g id="Group-3" transform="translate(0.000000, 0.056600)">
                    <mask id="mask-2" fill="white">
                        <use xlink:href="#path-1"></use>
                    </mask>
                    <g id="Clip-2"></g>
                    <path d="M20.6936,30.3895 C14.9636,30.3965 9.2346,30.3965 3.5066,30.3895 C2.4226,30.3885 1.6066,29.5605 1.6056,28.4625 L1.6066,14.8895 C1.6066,13.7075 2.4016,12.9145 3.5846,12.9135 L20.6666,12.9135 C21.6526,12.9185 22.3996,13.5445 22.5706,14.5075 C22.5916,14.6325 22.5916,14.7615 22.5916,14.8895 C22.5946,19.4135 22.5946,23.9375 22.5936,28.4625 C22.5936,29.5605 21.7766,30.3885 20.6936,30.3895 M24.1976,14.8895 C24.1976,14.6815 24.1926,14.4555 24.1506,14.2265 C23.8426,12.4905 22.4456,11.3185 20.6726,11.3085 L5.1226,11.3085 L5.1226,9.5705 C5.1236,6.1005 7.5086,3.2555 10.9236,2.6515 C13.0516,2.2765 15.2806,2.9525 16.8866,4.4595 C18.0056,5.5095 18.7246,6.8485 18.9676,8.3335 L20.5536,8.0755 C20.2526,6.2375 19.3656,4.5815 17.9856,3.2875 C16.0096,1.4345 13.2646,0.6055 10.6446,1.0705 C6.5156,1.8005 3.5166,5.3745 3.5166,9.5695 L3.5166,11.3145 C1.4766,11.3485 0.0016,12.8385 0.0016,14.8895 L0.0006,28.4625 C0.0016,30.4415 1.5406,31.9935 3.5056,31.9945 C6.3706,31.9985 9.2356,31.9995 12.0996,31.9995 C14.9646,31.9995 17.8306,31.9985 20.6946,31.9945 C22.6606,31.9935 24.1996,30.4415 24.1996,28.4625 C24.2016,23.9375 24.2006,19.4135 24.1976,14.8895" id="Fill-1" fill="#1A1732" mask="url(#mask-2)"></path>
                </g>
                <path d="M13.3128,21.3465 C12.9838,21.5495 12.8468,21.8135 12.8508,22.1955 C12.8638,23.2795 12.8578,24.3635 12.8538,25.4465 C12.8528,25.8995 12.5118,26.2275 12.1068,26.2275 C12.0358,26.2275 11.9608,26.2165 11.8868,26.1955 C11.5628,26.1005 11.3478,25.8095 11.3458,25.4475 C11.3428,24.8805 11.3448,24.3155 11.3448,23.7485 C11.3448,23.2195 11.3358,22.6895 11.3488,22.1585 C11.3568,21.7965 11.2108,21.5465 10.9038,21.3575 C9.9998,20.7995 9.6188,19.6935 9.9698,18.6945 C10.2888,17.7895 11.1598,17.1875 12.1008,17.1875 C12.1848,17.1875 12.2688,17.1915 12.3528,17.2005 C13.2998,17.3095 14.0958,18.0185 14.3018,18.9365 C14.5138,19.8765 14.1268,20.8425 13.3128,21.3465 M12.5358,15.6065 C12.3908,15.5885 12.2458,15.5805 12.1008,15.5805 C10.4628,15.5805 8.9988,16.6175 8.4558,18.1605 C7.8918,19.7645 8.4178,21.4945 9.7378,22.5015 C9.7358,22.7635 9.7368,23.0255 9.7388,23.2865 L9.7398,23.7485 L9.7398,24.2525 C9.7388,24.6535 9.7388,25.0545 9.7408,25.4545 C9.7468,26.5265 10.4288,27.4435 11.4388,27.7375 C11.6568,27.8005 11.8818,27.8325 12.1068,27.8325 C13.4208,27.8325 14.4548,26.7865 14.4598,25.4515 L14.4598,25.2625 C14.4638,24.3425 14.4668,23.4225 14.4598,22.5035 C15.6408,21.6035 16.2038,20.0745 15.8688,18.5835 C15.5108,16.9905 14.1708,15.7925 12.5358,15.6065" id="Fill-4" fill="#1A1732"></path>
            </g>
        </g>
    </g>
</svg>