<?xml version="1.0" encoding="UTF-8"?>
<svg width="22px" height="24px" viewBox="0 0 22 24" version="1.1" xmlns="http://www.w3.org/2000/svg" xmlns:xlink="http://www.w3.org/1999/xlink">
    <!-- Generator: Sketch 52.6 (67491) - http://www.bohemiancoding.com/sketch -->
    <title>basic</title>
    <desc>Created with Sketch.</desc>
    <defs>
        <polygon id="path-1" points="0.385281385 0 21.3852814 0 21.3852814 24 0.385281385 24"></polygon>
    </defs>
    <g id="Welcome" stroke="none" stroke-width="1" fill="none" fill-rule="evenodd">
        <g id="5-Edit-user" transform="translate(-49.000000, -187.000000)">
            <g id="basic" transform="translate(49.000000, 187.000000)">
                <mask id="mask-2" fill="white">
                    <use xlink:href="#path-1"></use>
                </mask>
                <g id="Clip-2"></g>
                <path d="M2.13614766,22.2500928 L19.6336726,22.2500928 L19.6336726,19.2363636 C19.6336726,17.5903525 18.2941634,16.2508349 16.6465076,16.2508349 L14.6713998,16.2508349 C13.0675528,16.2508349 11.7629421,14.9469388 11.7629421,13.3447124 L11.7629421,12.43859 C11.7629421,12.109833 11.94783,11.8085343 12.2411261,11.6593692 C13.7306247,10.9016698 14.731544,8.97810761 14.731544,6.87272727 C14.731544,4.04823748 13.0059235,1.74990724 10.8845389,1.74990724 C8.76463928,1.74990724 7.03901874,4.04823748 7.03901874,6.87272727 C7.03901874,8.97810761 8.03919554,10.9016698 9.52869416,11.6593692 C9.82273277,11.8085343 10.0068782,12.109833 10.0068782,12.43859 L10.0068782,13.3447124 C10.0068782,14.9469388 8.70300998,16.2508349 7.09916301,16.2508349 L5.12331264,16.2508349 C3.47639941,16.2508349 2.13614766,17.5903525 2.13614766,19.2363636 L2.13614766,22.2500928 Z M20.5091057,24 L1.26071452,24 C0.777332867,24 0.385281385,23.6081633 0.385281385,23.1250464 L0.385281385,19.2363636 C0.385281385,16.6248609 2.51112114,14.5009276 5.12331264,14.5009276 L7.09916301,14.5009276 C7.73698919,14.5009276 8.25526936,13.9814471 8.25526936,13.3447124 L8.25526936,12.9424861 C6.43683361,11.761039 5.28740995,9.44415584 5.28740995,6.87272727 C5.28740995,3.08274583 7.79861849,0 10.8845389,0 C13.9712018,0 16.4824103,3.08274583 16.4824103,6.87272727 C16.4824103,9.44415584 15.3329866,11.7617811 13.5138084,12.9424861 L13.5138084,13.3447124 C13.5138084,13.9814471 14.0328311,14.5009276 14.6713998,14.5009276 L16.6465076,14.5009276 C19.2594416,14.5009276 21.3852814,16.6248609 21.3852814,19.2363636 L21.3852814,23.1250464 C21.3852814,23.6081633 20.9932299,24 20.5091057,24 Z" id="Fill-1" fill="#1A1732" mask="url(#mask-2)"></path>
            </g>
        </g>
    </g>
</svg>