<?xml version="1.0" encoding="UTF-8"?>
<svg width="23px" height="29px" viewBox="0 0 23 29" version="1.1" xmlns="http://www.w3.org/2000/svg" xmlns:xlink="http://www.w3.org/1999/xlink">
    <!-- Generator: Sketch 52.6 (67491) - http://www.bohemiancoding.com/sketch -->
    <title>change password</title>
    <desc>Created with Sketch.</desc>
    <defs>
        <polygon id="path-1" points="0 0.0674054054 22.3203103 0.0674054054 22.3203103 29 0 29"></polygon>
    </defs>
    <g id="Welcome" stroke="none" stroke-width="1" fill="none" fill-rule="evenodd">
        <g id="4-Edit-User" transform="translate(-47.000000, -304.000000)">
            <g id="change-password" transform="translate(46.000000, 304.000000)">
                <g id="Group-3" transform="translate(0.947368, 0.000000)">
                    <mask id="mask-2" fill="white">
                        <use xlink:href="#path-1"></use>
                    </mask>
                    <g id="Clip-2"></g>
                    <path d="M19.6605586,27.5235081 C19.5709379,27.5250757 19.4813172,27.5235081 19.3924897,27.5235081 L2.77142069,27.5235081 C1.96404138,27.5235081 1.4865931,27.0508865 1.4865931,26.2506432 C1.4865931,21.8755622 1.49452414,17.4996973 1.47945517,13.1246162 C1.47707586,12.4129405 1.97197241,11.8266703 2.79362759,11.8321568 C5.58535172,11.8525351 8.37548966,11.8399946 11.1672138,11.8399946 C13.9589379,11.8399946 16.7490759,11.8368595 19.5408,11.8454811 C19.7652483,11.8462649 20.0095241,11.8870216 20.2093862,11.9826432 C20.6225931,12.1809405 20.8319724,12.5430486 20.8319724,12.9968595 C20.8343517,17.4487514 20.8343517,21.9006432 20.8327655,26.3525351 C20.8327655,27.0164 20.3299379,27.5101838 19.6605586,27.5235081 M5.00162759,7.06596757 C5.20704138,4.51788649 7.11128276,2.36561622 9.63097241,1.73231892 C13.1809034,0.839589189 16.7546276,3.18467027 17.2907655,6.76656216 C17.3423172,7.11377838 17.3534207,7.46883243 17.3581793,7.82075135 C17.3676966,8.59748108 17.3613517,9.37342703 17.3613517,10.149373 L17.3613517,10.3617784 L4.9825931,10.3617784 C4.97148966,10.3319946 4.96435172,10.3210216 4.96435172,10.3100486 C4.97148966,9.22842703 4.91438621,8.14131892 5.00162759,7.06596757 M22.3190414,13.0791568 C22.3190414,12.9090757 22.3142828,12.737427 22.2841448,12.5704811 C22.0485931,11.2576432 20.9786966,10.3743189 19.6256621,10.3672649 C19.371869,10.3664811 19.1172828,10.3672649 18.8444552,10.3672649 L18.8444552,10.1595622 C18.8444552,9.32953514 18.8563517,8.50029189 18.8396966,7.67104865 C18.8309724,7.23761622 18.8008345,6.80104865 18.7302483,6.37388649 C18.0521448,2.27861622 14.0049379,-0.543005405 9.86255862,0.180427027 C6.13497241,0.831751351 3.47728276,3.96296757 3.47648966,7.7071027 C3.47569655,8.52458919 3.47648966,9.34207568 3.47648966,10.1595622 L3.47648966,10.3672649 L2.74842069,10.3672649 C1.14793793,10.3688324 0.00190344828,11.4990486 0.00111034483,13.0799405 C-0.000475862069,17.4965622 -0.000475862069,21.9131838 0.00111034483,26.3305892 C0.00111034483,27.8299676 1.15507586,28.9938865 2.67069655,28.9954541 C8.33028276,29.0017243 13.9906621,29.0017243 19.6494552,28.9954541 C21.1650759,28.9938865 22.3198345,27.8299676 22.3198345,26.3305892 C22.3206276,21.9131838 22.3206276,17.4965622 22.3190414,13.0791568" id="Fill-1" fill="#1A1732" mask="url(#mask-2)"></path>
                </g>
                <path d="M13.579169,19.6435368 C13.2741093,19.8456833 13.146566,20.1077547 13.1510412,20.4888768 C13.1614834,21.5667252 13.157754,22.6453726 13.1532788,23.7232211 C13.1517871,24.2545548 12.7147089,24.612506 12.2552547,24.4694853 C11.9531785,24.3752035 11.7547778,24.0859662 11.7525402,23.7240201 C11.7495567,23.1607264 11.7517943,22.5974328 11.7517943,22.0341391 C11.7517943,21.5075993 11.7435898,20.9802606 11.7547778,20.4529218 C11.7622365,20.0925737 11.6272345,19.8424873 11.3408215,19.6539237 C10.5017209,19.0994191 10.147434,17.9983997 10.4741238,17.003647 C10.7963385,16.0240754 11.7264349,15.3992589 12.6878577,15.5183096 C13.5672351,15.6261743 14.3071354,16.3308906 14.4980774,17.2441455 C14.6949863,18.1813702 14.3369701,19.141766 13.579169,19.6435368 M11.9188686,14.053746 C10.456223,14.3317974 9.46869483,15.2498462 9.08457322,16.7855206 C8.70194335,18.3132049 9.12932526,19.6195668 10.2451426,20.6638573 C10.3025744,20.7181892 10.3480723,20.82126 10.349564,20.9019588 C10.3592603,21.4061266 10.3540392,21.9094954 10.3540392,22.4128642 C10.3540392,22.8563081 10.349564,23.2997521 10.3547851,23.743196 C10.3726859,25.2037646 11.5832284,26.2504521 12.9019216,25.9476318 C13.8700572,25.7255103 14.5458129,24.8202455 14.5517798,23.7264171 C14.556255,22.7915893 14.5495422,21.8567615 14.5570009,20.9219337 C14.5577468,20.8348429 14.6002612,20.7213852 14.6599306,20.6646563 C15.6422377,19.7593915 16.0740948,18.6200202 15.9152251,17.2409495 C15.6780393,15.1883234 13.8141172,13.6933979 11.9188686,14.053746" id="Fill-4" fill="#1A1732"></path>
            </g>
        </g>
    </g>
</svg>