<?xml version="1.0" encoding="UTF-8"?>
<svg width="34px" height="33px" viewBox="0 0 34 33" version="1.1" xmlns="http://www.w3.org/2000/svg" xmlns:xlink="http://www.w3.org/1999/xlink">
    <!-- Generator: Sketch 52.6 (67491) - http://www.bohemiancoding.com/sketch -->
    <title>company</title>
    <desc>Created with Sketch.</desc>
    <defs>
        <polygon id="path-1" points="0 0.257 33.9487 0.257 33.9487 33 0 33"></polygon>
    </defs>
    <g id="Welcome" stroke="none" stroke-width="1" fill="none" fill-rule="evenodd">
        <g id="5-Edit-user" transform="translate(-43.000000, -382.000000)">
            <g id="company" transform="translate(43.000000, 381.000000)">
                <g id="Group-3" transform="translate(0.000000, 0.742900)">
                    <mask id="mask-2" fill="white">
                        <use xlink:href="#path-1"></use>
                    </mask>
                    <g id="Clip-2"></g>
                    <path d="M32.7997,15.1163 L18.6647,0.9803 C17.6997,0.0153 16.0167,0.0153 15.0527,0.9803 L1.1487,14.8853 C0.4077,15.6263 -0.0003,16.6103 -0.0003,17.6583 L-0.0003,33.0003 L1.6057,33.0003 L1.6057,17.6583 C1.6057,17.0393 1.8467,16.4573 2.2837,16.0193 L16.1887,2.1153 C16.5447,1.7603 17.1717,1.7583 17.5287,2.1153 L31.6637,16.2513 C32.0957,16.6823 32.3437,17.2803 32.3437,17.8883 L32.3437,33.0003 L33.9487,33.0003 L33.9487,17.8883 C33.9487,16.8423 33.5407,15.8563 32.7997,15.1163" id="Fill-1" fill="#1A1732" mask="url(#mask-2)"></path>
                </g>
                <path d="M25.3642,32.0223 L8.5852,32.0223 L8.5852,29.1303 C8.5852,27.5513 9.8702,26.2663 11.4502,26.2663 L13.3432,26.2663 C14.8822,26.2663 16.1322,25.0153 16.1322,23.4773 L16.1322,22.6093 C16.1322,22.2933 15.9552,22.0033 15.6742,21.8613 C14.2452,21.1333 13.2862,19.2883 13.2862,17.2683 C13.2862,14.5583 14.9402,12.3523 16.9732,12.3523 C19.0082,12.3523 20.6632,14.5583 20.6632,17.2683 C20.6632,19.2883 19.7032,21.1333 18.2752,21.8613 C17.9932,22.0033 17.8162,22.2933 17.8162,22.6093 L17.8162,23.4773 C17.8162,25.0153 19.0672,26.2663 20.6052,26.2663 L22.4992,26.2663 C24.0792,26.2663 25.3642,27.5513 25.3642,29.1303 L25.3642,32.0223 Z M22.4992,24.6603 L20.6052,24.6603 C19.9532,24.6603 19.4222,24.1293 19.4222,23.4773 L19.4222,23.0513 C21.1662,21.9383 22.2682,19.7253 22.2682,17.2683 C22.2682,13.6723 19.8932,10.7473 16.9732,10.7473 C14.0542,10.7473 11.6802,13.6723 11.6802,17.2683 C11.6802,19.7263 12.7832,21.9393 14.5262,23.0523 L14.5262,23.4773 C14.5262,24.1293 13.9962,24.6603 13.3432,24.6603 L11.4502,24.6603 C8.9842,24.6603 6.9782,26.6663 6.9782,29.1303 L6.9782,32.0223 L6.9782,33.6273 L8.5852,33.6273 L25.3642,33.6273 L26.9692,33.6273 L26.9692,32.0223 L26.9692,29.1303 C26.9692,26.6663 24.9642,24.6603 22.4992,24.6603 Z" id="Fill-4" fill="#1A1732"></path>
            </g>
        </g>
    </g>
</svg>