<?xml version="1.0" encoding="UTF-8"?>
<svg width="34px" height="27px" viewBox="0 0 34 27" version="1.1" xmlns="http://www.w3.org/2000/svg" xmlns:xlink="http://www.w3.org/1999/xlink">
    <!-- Generator: Sketch 52.6 (67491) - http://www.bohemiancoding.com/sketch -->
    <title>dashboard</title>
    <desc>Created with Sketch.</desc>
    <defs>
        <polygon id="path-1" points="0 0.3362 33.9559 0.3362 33.9559 27 0 27"></polygon>
    </defs>
    <g id="Welcome" stroke="none" stroke-width="1" fill="none" fill-rule="evenodd">
        <g id="5-Edit-user" transform="translate(-43.000000, -458.000000)">
            <g id="dashboard" transform="translate(43.000000, 457.000000)">
                <path d="M5.7748,13.7284 C5.3308,13.7284 4.9718,14.0874 4.9718,14.5314 L4.9718,23.0154 C4.9718,23.4594 5.3308,23.8194 5.7748,23.8194 C6.2178,23.8194 6.5778,23.4594 6.5778,23.0154 L6.5778,14.5314 C6.5778,14.0874 6.2178,13.7284 5.7748,13.7284" id="Fill-1" fill="#1A1732"></path>
                <path d="M12.4037,10.4139 C11.9597,10.4139 11.6007,10.7729 11.6007,11.2169 L11.6007,23.0159 C11.6007,23.4599 11.9597,23.8189 12.4037,23.8189 C12.8467,23.8189 13.2067,23.4599 13.2067,23.0159 L13.2067,11.2169 C13.2067,10.7729 12.8467,10.4139 12.4037,10.4139" id="Fill-3" fill="#1A1732"></path>
                <path d="M9.222,6.1708 C8.778,6.1708 8.419,6.5298 8.419,6.9738 L8.419,23.0158 C8.419,23.4598 8.778,23.8188 9.222,23.8188 C9.665,23.8188 10.025,23.4598 10.025,23.0158 L10.025,6.9738 C10.025,6.5298 9.665,6.1708 9.222,6.1708" id="Fill-5" fill="#1A1732"></path>
                <path d="M28.181,17.5731 L18.635,17.5731 C18.192,17.5731 17.832,17.9321 17.832,18.3761 C17.832,18.8201 18.192,19.1781 18.635,19.1781 L28.181,19.1781 C28.624,19.1781 28.984,18.8201 28.984,18.3761 C28.984,17.9321 28.624,17.5731 28.181,17.5731" id="Fill-7" fill="#1A1732"></path>
                <path d="M28.181,21.0204 L18.635,21.0204 C18.192,21.0204 17.832,21.3794 17.832,21.8234 C17.832,22.2674 18.192,22.6254 18.635,22.6254 L28.181,22.6254 C28.624,22.6254 28.984,22.2674 28.984,21.8234 C28.984,21.3794 28.624,21.0204 28.181,21.0204" id="Fill-9" fill="#1A1732"></path>
                <path d="M23.2757,6.451 C23.5347,6.451 23.7847,6.485 24.0277,6.539 L22.2917,9.565 C22.1357,9.837 22.1237,10.168 22.2557,10.45 C22.3897,10.732 22.6537,10.932 22.9617,10.985 L26.2727,11.545 C25.6857,12.604 24.5697,13.331 23.2757,13.331 C21.3787,13.331 19.8357,11.788 19.8357,9.89 C19.8357,7.994 21.3787,6.451 23.2757,6.451 M26.7057,9.989 L24.1477,9.556 L25.4647,7.26 C26.2227,7.891 26.7147,8.83 26.7147,9.89 C26.7147,9.925 26.7067,9.956 26.7057,9.989 M23.2757,14.936 C26.0577,14.936 28.3217,12.673 28.3217,9.89 C28.3217,7.946 27.2137,6.259 25.5987,5.416 L25.5977,5.416 C25.5977,5.415 25.5967,5.416 25.5967,5.415 C24.9007,5.053 24.1127,4.845 23.2757,4.845 C20.4937,4.845 18.2297,7.108 18.2297,9.89 C18.2297,12.673 20.4937,14.936 23.2757,14.936" id="Fill-11" fill="#1A1732"></path>
                <g id="Group-15" transform="translate(0.000000, 0.663800)">
                    <mask id="mask-2" fill="white">
                        <use xlink:href="#path-1"></use>
                    </mask>
                    <g id="Clip-14"></g>
                    <path d="M32.3509,24.6232 C32.3509,25.0492 32.0039,25.3942 31.5789,25.3942 L2.3769,25.3942 C1.9519,25.3942 1.6059,25.0492 1.6059,24.6232 L1.6059,2.7132 C1.6059,2.2872 1.9519,1.9412 2.3769,1.9412 L31.5789,1.9412 C32.0039,1.9412 32.3509,2.2872 32.3509,2.7132 L32.3509,24.6232 Z M31.5789,0.3362 L2.3769,0.3362 C1.0669,0.3362 -0.0001,1.4022 -0.0001,2.7132 L-0.0001,24.6232 C-0.0001,25.9342 1.0669,27.0002 2.3769,27.0002 L31.5789,27.0002 C32.8899,27.0002 33.9559,25.9342 33.9559,24.6232 L33.9559,2.7132 C33.9559,1.4022 32.8899,0.3362 31.5789,0.3362 Z" id="Fill-13" fill="#1A1732" mask="url(#mask-2)"></path>
                </g>
            </g>
        </g>
    </g>
</svg>