<?xml version="1.0" encoding="UTF-8"?>
<svg width="39px" height="21px" viewBox="0 0 39 21" version="1.1" xmlns="http://www.w3.org/2000/svg" xmlns:xlink="http://www.w3.org/1999/xlink">
    <!-- Generator: Sketch 52.6 (67491) - http://www.bohemiancoding.com/sketch -->
    <title>groups</title>
    <desc>Created with Sketch.</desc>
    <defs>
        <polygon id="path-1" points="0 0.2675 16.4713 0.2675 16.4713 19.5295 0 19.5295"></polygon>
    </defs>
    <g id="Welcome" stroke="none" stroke-width="1" fill="none" fill-rule="evenodd">
        <g id="5-Edit-user" transform="translate(-40.000000, -256.000000)">
            <g id="groups" transform="translate(40.000000, 255.000000)">
                <path d="M36.563,18.6565 L27.632,18.6565 L27.632,17.7675 C27.632,15.9815 26.431,14.4865 24.8,14.0035 C24.934,13.9795 25.069,13.9595 25.209,13.9595 L26.754,13.9595 C28.009,13.9595 29.03,12.9375 29.03,11.6835 L29.03,10.9745 C29.03,10.7175 28.885,10.4805 28.656,10.3635 C27.49,9.7705 26.708,8.2645 26.708,6.6165 C26.708,4.4055 28.057,2.6055 29.716,2.6055 C31.376,2.6055 32.727,4.4055 32.727,6.6165 C32.727,8.2645 31.944,9.7705 30.778,10.3635 C30.548,10.4805 30.404,10.7175 30.404,10.9745 L30.404,11.6835 C30.404,12.9375 31.424,13.9595 32.679,13.9595 L34.225,13.9595 C35.514,13.9595 36.563,15.0085 36.563,16.2975 L36.563,18.6565 Z M26.026,20.1275 L12.334,20.1275 L12.334,17.7675 C12.334,16.4785 13.383,15.4295 14.672,15.4295 L16.218,15.4295 C17.472,15.4295 18.493,14.4095 18.493,13.1545 L18.493,12.4455 C18.493,12.1875 18.349,11.9515 18.119,11.8355 C16.954,11.2415 16.17,9.7355 16.17,8.0875 C16.17,5.8765 17.521,4.0765 19.18,4.0765 C20.84,4.0765 22.19,5.8765 22.19,8.0875 C22.19,9.7355 21.407,11.2415 20.242,11.8355 C20.012,11.9515 19.868,12.1875 19.868,12.4455 L19.868,13.1545 C19.868,14.4095 20.888,15.4295 22.143,15.4295 L23.688,15.4295 C24.978,15.4295 26.026,16.4785 26.026,17.7675 L26.026,20.1275 Z M34.225,12.3525 L32.679,12.3525 C32.31,12.3525 32.009,12.0525 32.009,11.6835 L32.009,11.4945 C33.437,10.5075 34.333,8.6585 34.333,6.6165 C34.333,3.5195 32.262,1.0005 29.716,1.0005 C27.171,1.0005 25.101,3.5195 25.101,6.6165 C25.101,8.6585 25.997,10.5065 27.424,11.4945 L27.424,11.6835 C27.424,12.0525 27.124,12.3525 26.754,12.3525 L25.209,12.3525 C24.084,12.3525 23.009,12.8365 22.261,13.6785 C22.22,13.7235 22.191,13.7765 22.154,13.8245 L22.143,13.8245 C21.774,13.8245 21.473,13.5235 21.473,13.1545 L21.473,12.9655 C22.901,11.9765 23.796,10.1295 23.796,8.0875 C23.796,4.9905 21.725,2.4705 19.18,2.4705 C16.635,2.4705 14.565,4.9905 14.565,8.0875 C14.565,10.1295 15.46,11.9775 16.887,12.9655 L16.887,13.1545 C16.887,13.5235 16.587,13.8245 16.218,13.8245 L14.672,13.8245 C12.498,13.8245 10.729,15.5935 10.729,17.7675 L10.729,20.1275 L10.729,21.7325 L12.334,21.7325 L26.026,21.7325 L27.632,21.7325 L27.632,20.2615 L36.563,20.2615 L38.168,20.2615 L38.168,18.6565 L38.168,16.2975 C38.168,14.1225 36.4,12.3525 34.225,12.3525 Z" id="Fill-1" fill="#1A1732"></path>
                <g id="Group-5" transform="translate(0.000000, 0.732700)">
                    <mask id="mask-2" fill="white">
                        <use xlink:href="#path-1"></use>
                    </mask>
                    <g id="Clip-4"></g>
                    <path d="M11.5093,19.0645 L11.6633,18.3575 L11.6303,17.9235 L1.6063,17.9235 L1.6063,15.5645 C1.6063,14.2755 2.6553,13.2265 3.9443,13.2265 L5.4883,13.2265 C6.7433,13.2265 7.7643,12.2055 7.7643,10.9515 L7.7643,10.2425 C7.7643,9.9845 7.6193,9.7485 7.3903,9.6305 C6.2253,9.0385 5.4423,7.5325 5.4423,5.8835 C5.4423,3.6725 6.7923,1.8735 8.4513,1.8735 C10.1113,1.8735 11.4613,3.6725 11.4613,5.8835 C11.4613,7.5325 10.6793,9.0385 9.5133,9.6305 C9.2833,9.7485 9.1393,9.9845 9.1393,10.2425 L9.1393,10.9515 C9.1393,12.2055 10.1593,13.2265 11.4143,13.2265 L12.9593,13.2265 C13.7053,13.2265 14.3633,13.5845 14.7913,14.1295 C15.5193,14.0055 16.3133,13.8725 16.3483,13.8725 C16.3633,13.8725 16.4103,13.8445 16.4713,13.8065 C15.8223,12.5165 14.5003,11.6205 12.9593,11.6205 L11.4143,11.6205 C11.0453,11.6205 10.7443,11.3205 10.7443,10.9515 L10.7443,10.7615 C12.1713,9.7745 13.0673,7.9255 13.0673,5.8835 C13.0673,2.7875 10.9963,0.2675 8.4513,0.2675 C5.9063,0.2675 3.8363,2.7875 3.8363,5.8835 C3.8363,7.9255 4.7323,9.7745 6.1583,10.7615 L6.1583,10.9515 C6.1583,11.3205 5.8593,11.6205 5.4883,11.6205 L3.9443,11.6205 C1.7693,11.6205 -0.0007,13.3895 -0.0007,15.5645 L-0.0007,17.9235 L-0.0007,19.5295 L1.6063,19.5295 L11.5093,19.5295 L11.5093,19.0645 Z" id="Fill-3" fill="#1A1732" mask="url(#mask-2)"></path>
                </g>
            </g>
        </g>
    </g>
</svg>