<?xml version="1.0" encoding="UTF-8" standalone="no"?>
<!DOCTYPE svg PUBLIC "-//W3C//DTD SVG 1.1//EN" "http://www.w3.org/Graphics/SVG/1.1/DTD/svg11.dtd">
<svg version="1.1" xmlns="http://www.w3.org/2000/svg" xmlns:xlink="http://www.w3.org/1999/xlink" preserveAspectRatio="xMidYMid meet" viewBox="0 0 800 480" width="800" height="480"><defs><path d="M186.93 350.95C169.5 333.52 30.1 194.12 12.67 176.69C4.75 167.19 4.75 151.35 12.67 141.84C20.59 132.34 36.44 132.34 45.94 141.84C56.4 152.3 108.67 204.57 202.77 298.67C296.87 204.57 349.15 152.3 359.6 141.84C369.11 132.34 383.37 132.34 392.87 141.84C402.38 151.35 402.38 165.6 392.87 175.11C375.45 192.53 224.2 343.11 218.61 349.37C213.03 355.62 209.69 357.29 203.36 357.29C197.02 357.29 191.68 354.12 186.93 350.95Z" id="b3A725eq0x"></path></defs><g><g><g><use xlink:href="#b3A725eq0x" opacity="1" fill="#8ac44a" fill-opacity="1"></use><g><use xlink:href="#b3A725eq0x" opacity="1" fill-opacity="0" stroke="#000000" stroke-width="1" stroke-opacity="0"></use></g></g></g></g></svg>