<?xml version="1.0" encoding="utf-8"?>
<!-- Generator: Adobe Illustrator 22.0.1, SVG Export Plug-In . SVG Version: 6.00 Build 0)  -->
<svg version="1.1" id="Layer_1" xmlns="http://www.w3.org/2000/svg" xmlns:xlink="http://www.w3.org/1999/xlink" x="0px" y="0px"
	 viewBox="0 0 24 24" style="enable-background:new 0 0 24 24;" xml:space="preserve">
<style type="text/css">
	.st0{fill:#D3D6D8;}
</style>
<path class="st0" d="M20.9,13c-0.5,4.5-4.3,8-8.9,8c-2.7,0-5.1-1.2-6.8-3.1l1.2-1.6C7.8,17.9,9.8,19,12,19c3.5,0,6.4-2.6,6.9-6H16
	l4-5.2l4,5.2H20.9z M5.1,11C5.6,7.6,8.5,5,12,5c2.2,0,4.2,1.1,5.5,2.7l1.2-1.6C17.1,4.2,14.7,3,12,3c-4.6,0-8.4,3.5-8.9,8H0l4,5.2
	L8,11H5.1z"/>
</svg>
